<svg xmlns="http://www.w3.org/2000/svg" xmlns:xlink="http://www.w3.org/1999/xlink" width="32" height="32" class="icon" p-id="6444" t="1546837481481" version="1.1" viewBox="0 0 1024 1024"><defs><style type="text/css"/></defs><path fill="#707070" d="M512 960C265.6 960 64 758.4 64 512S265.6 64 512 64s448 201.6 448 448-201.6 448-448 448z m0-832c-211.2 0-384 172.8-384 384s172.8 384 384 384 384-172.8 384-384-172.8-384-384-384z m-16 528c-8 0-16-3.2-22.4-9.6l-160-160c-12.8-12.8-12.8-32 0-44.8 12.8-12.8 32-12.8 44.8 0L496 579.2l217.6-217.6c12.8-12.8 32-12.8 44.8 0 12.8 12.8 12.8 32 0 44.8l-240 240C512 652.8 504 656 496 656z" p-id="6445"/></svg>